                                                                        S      1
,,9H(Unsaved),19Hfinal servo case v1,7Hunknown,7Hunknown,32,38,7,99,15,,G      1
1.,2,2HMM,1,0.08,15H20240619.230402,0.01,10000.,7Hunknown,7Hunknown,11, G      2
0,;                                                                     G      3
     186       1                                                00000000D      1
     186            -167       1       0                               0D      2
     514       2                                                00010000D      3
     514                       2       1                               0D      4
     510       4                                                00010000D      5
     510            -167       1       1                               0D      6
     510       5                                                00010000D      7
     510            -167       1       1                               0D      8
     510       6                                                00010000D      9
     510            -167       1       1                               0D     10
     510       7                                                00010000D     11
     510            -167       1       1                               0D     12
     510       8                                                00010000D     13
     510            -167       1       1                               0D     14
     510       9                                                00010000D     15
     510            -167       1       1                               0D     16
     510      10                                                00010000D     17
     510            -167       1       1                               0D     18
     510      11                                                00010000D     19
     510            -167       1       1                               0D     20
     510      12                                                00010000D     21
     510            -167       1       1                               0D     22
     510      13                                                00010000D     23
     510            -167       1       1                               0D     24
     510      14                                                00010000D     25
     510            -167       1       1                               0D     26
     510      15                                                00010000D     27
     510            -167       1       1                               0D     28
     510      16                                                00010000D     29
     510            -167       1       1                               0D     30
     510      17                                                00010000D     31
     510            -167       1       1                               0D     32
     508      18                                                00010000D     33
     508                       1       1                               0D     34
     508      19                                                00010000D     35
     508                       1       1                               0D     36
     508      20                                                00010000D     37
     508                       1       1                               0D     38
     508      21                                                00010000D     39
     508                       1       1                               0D     40
     508      22                                                00010000D     41
     508                       1       1                               0D     42
     508      23                                                00010000D     43
     508                       1       1                               0D     44
     508      24                                                00010000D     45
     508                       1       1                               0D     46
     508      25                                                00010000D     47
     508                       1       1                               0D     48
     508      26                                                00010000D     49
     508                       1       1                               0D     50
     508      27                                                00010000D     51
     508                       1       1                               0D     52
     508      28                                                00010000D     53
     508                       1       1                               0D     54
     508      29                                                00010000D     55
     508                       1       1                               0D     56
     508      30                                                00010000D     57
     508                       3       1                               0D     58
     508      33                                                00010000D     59
     508                       3       1                               0D     60
     126      36                                                00010000D     61
     126       0               2       0                               0D     62
     126      38                                                00010000D     63
     126       0               2       0                               0D     64
     126      40                                                00010000D     65
     126       0               2       0                               0D     66
     126      42                                                00010000D     67
     126       0               2       0                               0D     68
     126      44                                                00010000D     69
     126       0               2       0                               0D     70
     126      46                                                00010000D     71
     126       0               2       0                               0D     72
     126      48                                                00010000D     73
     126       0               2       0                               0D     74
     126      50                                                00010000D     75
     126       0               2       0                               0D     76
     126      52                                                00010000D     77
     126       0               2       0                               0D     78
     126      54                                                00010000D     79
     126       0               2       0                               0D     80
     126      56                                                00010000D     81
     126       0               2       0                               0D     82
     126      58                                                00010000D     83
     126       0               2       0                               0D     84
     126      60                                                00010000D     85
     126       0               2       0                               0D     86
     126      62                                                00010000D     87
     126       0               2       0                               0D     88
     126      64                                                00010000D     89
     126       0               2       0                               0D     90
     126      66                                                00010000D     91
     126       0               2       0                               0D     92
     126      68                                                00010000D     93
     126       0               2       0                               0D     94
     126      70                                                00010000D     95
     126       0               2       0                               0D     96
     126      72                                                00010000D     97
     126       0               2       0                               0D     98
     126      74                                                00010000D     99
     126       0               2       0                               0D    100
     126      76                                                00010000D    101
     126       0               2       0                               0D    102
     126      78                                                00010000D    103
     126       0               2       0                               0D    104
     126      80                                                00010000D    105
     126       0               2       0                               0D    106
     126      82                                                00010000D    107
     126       0               2       0                               0D    108
     126      84                                                00010000D    109
     126       0               2       0                               0D    110
     126      86                                                00010000D    111
     126       0               2       0                               0D    112
     126      88                                                00010000D    113
     126       0               2       0                               0D    114
     126      90                                                00010000D    115
     126       0               2       0                               0D    116
     126      92                                                00010000D    117
     126       0               2       0                               0D    118
     126      94                                                00010000D    119
     126       0               2       0                               0D    120
     126      96                                                00010000D    121
     126       0               2       0                               0D    122
     126      98                                                00010000D    123
     126       0               2       0                               0D    124
     126     100                                                00010000D    125
     126       0               2       0                               0D    126
     126     102                                                00010000D    127
     126       0               2       0                               0D    128
     126     104                                                00010000D    129
     126       0               2       0                               0D    130
     126     106                                                00010000D    131
     126       0               2       0                               0D    132
     128     108                                                00010000D    133
     128       0    -167       3       0                               0D    134
     128     111                                                00010000D    135
     128       0    -167       3       0                               0D    136
     128     114                                                00010000D    137
     128       0    -167       3       0                               0D    138
     128     117                                                00010000D    139
     128       0    -167       3       0                               0D    140
     128     120                                                00010000D    141
     128       0    -167       3       0                               0D    142
     128     123                                                00010000D    143
     128       0    -167       4       0                               0D    144
     128     127                                                00010000D    145
     128       0    -167       4       0                               0D    146
     128     131                                                00010000D    147
     128       0    -167       3       0                               0D    148
     128     134                                                00010000D    149
     128       0    -167       3       0                               0D    150
     128     137                                                00010000D    151
     128       0    -167       3       0                               0D    152
     128     140                                                00010000D    153
     128       0    -167       3       0                               0D    154
     128     143                                                00010000D    155
     128       0    -167       3       0                               0D    156
     128     146                                                00010000D    157
     128       0    -167       4       0                               0D    158
     128     150                                                00010000D    159
     128       0    -167       4       0                               0D    160
     502     154                                                00010000D    161
     502                       5       1                               0D    162
     504     159                                                00010001D    163
     504                      10       1                               0D    164
     406     169                                                00000000D    165
     406                       1      15                               0D    166
     314     170                                                00000200D    167
     314                       2       0                               0D    168
186,3,1,0,0,1,165;                                                     1P      1
514,14,5,1,7,1,9,1,11,1,13,1,15,1,17,1,19,1,21,1,23,1,25,1,27,1,       3P      2
29,1,31,1;                                                             3P      3
510,133,1,1,33;                                                        5P      4
510,135,1,1,35;                                                        7P      5
510,137,1,1,37;                                                        9P      6
510,139,1,1,39;                                                       11P      7
510,141,1,1,41;                                                       13P      8
510,143,1,1,43;                                                       15P      9
510,145,1,1,45;                                                       17P     10
510,147,1,1,47;                                                       19P     11
510,149,1,1,49;                                                       21P     12
510,151,1,1,51;                                                       23P     13
510,153,1,1,53;                                                       25P     14
510,155,1,1,55;                                                       27P     15
510,157,1,1,57;                                                       29P     16
510,159,1,1,59;                                                       31P     17
508,4,0,163,1,0,0,0,163,2,1,0,0,163,3,0,0,0,163,4,0,0;                33P     18
508,4,0,163,5,0,0,0,163,4,1,0,0,163,6,0,0,0,163,7,0,0;                35P     19
508,4,0,163,8,1,0,0,163,7,1,0,0,163,9,0,0,0,163,10,0,0;               37P     20
508,4,0,163,11,1,0,0,163,10,1,0,0,163,12,0,0,0,163,13,0,0;            39P     21
508,4,0,163,14,1,0,0,163,13,1,0,0,163,15,0,0,0,163,16,0,0;            41P     22
508,4,0,163,17,0,0,0,163,16,1,0,0,163,18,0,0,0,163,19,0,0;            43P     23
508,4,0,163,20,0,0,0,163,19,1,0,0,163,21,0,0,0,163,22,0,0;            45P     24
508,4,0,163,23,1,0,0,163,22,1,0,0,163,24,0,0,0,163,25,0,0;            47P     25
508,4,0,163,26,1,0,0,163,25,1,0,0,163,27,0,0,0,163,28,0,0;            49P     26
508,4,0,163,29,0,0,0,163,28,1,0,0,163,30,0,0,0,163,31,0,0;            51P     27
508,4,0,163,32,1,0,0,163,31,1,0,0,163,33,0,0,0,163,34,0,0;            53P     28
508,4,0,163,35,1,0,0,163,34,1,0,0,163,36,0,0,0,163,2,0,0;             55P     29
508,12,0,163,36,1,0,0,163,33,1,0,0,163,30,1,0,0,163,27,1,0,0,         57P     30
163,24,1,0,0,163,21,1,0,0,163,18,1,0,0,163,15,1,0,0,163,12,1,0,       57P     31
0,163,9,1,0,0,163,6,1,0,0,163,3,1,0;                                  57P     32
508,12,0,163,35,0,0,0,163,1,1,0,0,163,5,1,0,0,163,8,0,0,0,163,        59P     33
11,0,0,0,163,14,0,0,0,163,17,1,0,0,163,20,1,0,0,163,23,0,0,0,         59P     34
163,26,0,0,0,163,29,1,0,0,163,32,0,0;                                 59P     35
126,1,1,0,0,1,0,0.,0.,0.55,0.55,1.,1.,34.,70.,0.,28.5,70.,0.,0.,      61P     36
0.55,0.,0.,0.;                                                        61P     37
126,1,1,0,0,1,0,0.,0.,5.,5.,1.,1.,34.,70.,0.,34.,70.,50.,0.,5.,       63P     38
0.,0.,0.;                                                             63P     39
126,1,1,0,0,1,0,-0.55,-0.55,0.,0.,1.,1.,28.5,70.,50.,34.,70.,         65P     40
50.,-0.55,0.,0.,0.,0.;                                                65P     41
126,1,1,0,0,1,0,0.,0.,5.,5.,1.,1.,28.5,70.,0.,28.5,70.,50.,0.,        67P     42
5.,0.,0.,0.;                                                          67P     43
126,1,1,0,0,1,0,0.,0.,0.5,0.5,1.,1.,28.5,70.,0.,28.5,75.,0.,0.,       69P     44
0.5,0.,0.,0.;                                                         69P     45
126,1,1,0,0,1,0,-0.5,-0.5,0.,0.,1.,1.,28.5,75.,50.,28.5,70.,50.,      71P     46
-0.5,0.,0.,0.,0.;                                                     71P     47
126,1,1,0,0,1,0,0.,0.,5.,5.,1.,1.,28.5,75.,0.,28.5,75.,50.,0.,        73P     48
5.,0.,0.,0.;                                                          73P     49
126,1,1,0,0,1,0,0.,0.,1.05,1.05,1.,1.,39.,75.,0.,28.5,75.,0.,0.,      75P     50
1.05,0.,0.,0.;                                                        75P     51
126,1,1,0,0,1,0,0.,0.,1.05,1.05,1.,1.,39.,75.,50.,28.5,75.,50.,       77P     52
0.,1.05,0.,0.,0.;                                                     77P     53
126,1,1,0,0,1,0,0.,0.,5.,5.,1.,1.,39.,75.,0.,39.,75.,50.,0.,5.,       79P     54
0.,0.,0.;                                                             79P     55
126,1,1,0,0,1,0,0.,0.,7.5,7.5,1.,1.,39.,0.,0.,39.,75.,0.,0.,7.5,      81P     56
0.,0.,0.;                                                             81P     57
126,1,1,0,0,1,0,0.,0.,7.5,7.5,1.,1.,39.,0.,50.,39.,75.,50.,0.,        83P     58
7.5,0.,0.,0.;                                                         83P     59
126,1,1,0,0,1,0,0.,0.,5.,5.,1.,1.,39.,0.,0.,39.,0.,50.,0.,5.,0.,      85P     60
0.,0.;                                                                85P     61
126,1,1,0,0,1,0,0.,0.,3.9,3.9,1.,1.,0.,0.,0.,39.,0.,0.,0.,3.9,        87P     62
0.,0.,0.;                                                             87P     63
126,1,1,0,0,1,0,0.,0.,3.9,3.9,1.,1.,0.,0.,50.,39.,0.,50.,0.,3.9,      89P     64
0.,0.,0.;                                                             89P     65
126,1,1,0,0,1,0,0.,0.,5.,5.,1.,1.,0.,0.,0.,0.,0.,50.,0.,5.,0.,        91P     66
0.,0.;                                                                91P     67
126,1,1,0,0,1,0,0.,0.,7.5,7.5,1.,1.,0.,0.,0.,0.,75.,0.,0.,7.5,        93P     68
0.,0.,0.;                                                             93P     69
126,1,1,0,0,1,0,-7.5,-7.5,0.,0.,1.,1.,0.,75.,50.,0.,0.,50.,-7.5,      95P     70
0.,0.,0.,0.;                                                          95P     71
126,1,1,0,0,1,0,0.,0.,5.,5.,1.,1.,0.,75.,0.,0.,75.,50.,0.,5.,0.,      97P     72
0.,0.;                                                                97P     73
126,1,1,0,0,1,0,-0.5,-0.5,0.55,0.55,1.,1.,0.,75.,0.,10.5,75.,0.,      99P     74
-0.5,0.55,0.,0.,0.;                                                   99P     75
126,1,1,0,0,1,0,-0.55,-0.55,0.5,0.5,1.,1.,10.5,75.,50.,0.,75.,       101P     76
50.,-0.55,0.5,0.,0.,0.;                                              101P     77
126,1,1,0,0,1,0,0.,0.,5.,5.,1.,1.,10.5,75.,0.,10.5,75.,50.,0.,       103P     78
5.,0.,0.,0.;                                                         103P     79
126,1,1,0,0,1,0,0.,0.,0.5,0.5,1.,1.,10.5,70.,0.,10.5,75.,0.,0.,      105P     80
0.5,0.,0.,0.;                                                        105P     81
126,1,1,0,0,1,0,0.,0.,0.5,0.5,1.,1.,10.5,70.,50.,10.5,75.,50.,       107P     82
0.,0.5,0.,0.,0.;                                                     107P     83
126,1,1,0,0,1,0,0.,0.,5.,5.,1.,1.,10.5,70.,0.,10.5,70.,50.,0.,       109P     84
5.,0.,0.,0.;                                                         109P     85
126,1,1,0,0,1,0,0.,0.,0.55,0.55,1.,1.,5.,70.,0.,10.5,70.,0.,0.,      111P     86
0.55,0.,0.,0.;                                                       111P     87
126,1,1,0,0,1,0,0.,0.,0.55,0.55,1.,1.,5.,70.,50.,10.5,70.,50.,       113P     88
0.,0.55,0.,0.,0.;                                                    113P     89
126,1,1,0,0,1,0,0.,0.,5.,5.,1.,1.,5.,70.,0.,5.,70.,50.,0.,5.,0.,     115P     90
0.,0.;                                                               115P     91
126,1,1,0,0,1,0,0.,0.,6.5,6.5,1.,1.,5.,70.,0.,5.,5.,0.,0.,6.5,       117P     92
0.,0.,0.;                                                            117P     93
126,1,1,0,0,1,0,-6.5,-6.5,0.,0.,1.,1.,5.,5.,50.,5.,70.,50.,-6.5,     119P     94
0.,0.,0.,0.;                                                         119P     95
126,1,1,0,0,1,0,0.,0.,5.,5.,1.,1.,5.,5.,0.,5.,5.,50.,0.,5.,0.,       121P     96
0.,0.;                                                               121P     97
126,1,1,0,0,1,0,0.,0.,2.9,2.9,1.,1.,34.,5.,0.,5.,5.,0.,0.,2.9,       123P     98
0.,0.,0.;                                                            123P     99
126,1,1,0,0,1,0,0.,0.,2.9,2.9,1.,1.,34.,5.,50.,5.,5.,50.,0.,2.9,     125P    100
0.,0.,0.;                                                            125P    101
126,1,1,0,0,1,0,0.,0.,5.,5.,1.,1.,34.,5.,0.,34.,5.,50.,0.,5.,0.,     127P    102
0.,0.;                                                               127P    103
126,1,1,0,0,1,0,0.,0.,6.5,6.5,1.,1.,34.,70.,0.,34.,5.,0.,0.,6.5,     129P    104
0.,0.,0.;                                                            129P    105
126,1,1,0,0,1,0,0.,0.,6.5,6.5,1.,1.,34.,70.,50.,34.,5.,50.,0.,       131P    106
6.5,0.,0.,0.;                                                        131P    107
128,1,1,1,1,0,0,1,0,0,-0.001,-0.001,0.551,0.551,-0.001,-0.001,       133P    108
5.001,5.001,1.,1.,1.,1.,28.49,70.,-0.01,34.01,70.,-0.01,28.49,       133P    109
70.,50.01,34.01,70.,50.01,-0.001,0.551,-0.001,5.001;                 133P    110
128,1,1,1,1,0,0,1,0,0,-0.001,-0.001,0.501,0.501,-0.001,-0.001,       135P    111
5.001,5.001,1.,1.,1.,1.,28.5,75.01,-0.01,28.5,69.99,-0.01,28.5,      135P    112
75.01,50.01,28.5,69.99,50.01,-0.001,0.501,-0.001,5.001;              135P    113
128,1,1,1,1,0,0,1,0,0,-0.001,-0.001,1.051,1.051,-0.001,-0.001,       137P    114
5.001,5.001,1.,1.,1.,1.,39.01,75.,-0.01,28.49,75.,-0.01,39.01,       137P    115
75.,50.01,28.49,75.,50.01,-0.001,1.051,-0.001,5.001;                 137P    116
128,1,1,1,1,0,0,1,0,0,-0.001,-0.001,7.501,7.501,-0.001,-0.001,       139P    117
5.001,5.001,1.,1.,1.,1.,39.,-0.01,-0.01,39.,75.01,-0.01,39.,         139P    118
-0.01,50.01,39.,75.01,50.01,-0.001,7.501,-0.001,5.001;               139P    119
128,1,1,1,1,0,0,1,0,0,-0.001,-0.001,3.901,3.901,-0.001,-0.001,       141P    120
5.001,5.001,1.,1.,1.,1.,-0.01,0.,-0.01,39.01,0.,-0.01,-0.01,0.,      141P    121
50.01,39.01,0.,50.01,-0.001,3.901,-0.001,5.001;                      141P    122
128,1,1,1,1,0,0,1,0,0,-0.001,-0.001,7.501,7.501,-0.001,-0.001,       143P    123
5.001,5.001,1.,1.,1.,1.,0.,75.01,-0.01,0.,-0.0100000000000033,       143P    124
-0.01,0.,75.01,50.01,0.,-0.0100000000000033,50.01,-0.001,7.501,      143P    125
-0.001,5.001;                                                        143P    126
128,1,1,1,1,0,0,1,0,0,-0.001,-0.001,1.051,1.051,-0.001,-0.001,       145P    127
5.001,5.001,1.,1.,1.,1.,10.51,75.,-0.01,-0.0099999999999989,75.,     145P    128
-0.01,10.51,75.,50.01,-0.0099999999999989,75.,50.01,-0.001,          145P    129
1.051,-0.001,5.001;                                                  145P    130
128,1,1,1,1,0,0,1,0,0,-0.001,-0.001,0.501,0.501,-0.001,-0.001,       147P    131
5.001,5.001,1.,1.,1.,1.,10.5,69.99,-0.01,10.5,75.01,-0.01,10.5,      147P    132
69.99,50.01,10.5,75.01,50.01,-0.001,0.501,-0.001,5.001;              147P    133
128,1,1,1,1,0,0,1,0,0,-0.001,-0.001,0.551,0.551,-0.001,-0.001,       149P    134
5.001,5.001,1.,1.,1.,1.,4.99,70.,-0.01,10.51,70.,-0.01,4.99,70.,     149P    135
50.01,10.51,70.,50.01,-0.001,0.551,-0.001,5.001;                     149P    136
128,1,1,1,1,0,0,1,0,0,-0.001,-0.001,6.501,6.501,-0.001,-0.001,       151P    137
5.001,5.001,1.,1.,1.,1.,5.,4.99,-0.01,5.,70.01,-0.01,5.,4.99,        151P    138
50.01,5.,70.01,50.01,-0.001,6.501,-0.001,5.001;                      151P    139
128,1,1,1,1,0,0,1,0,0,-0.001,-0.001,2.901,2.901,-0.001,-0.001,       153P    140
5.001,5.001,1.,1.,1.,1.,34.01,5.,-0.01,4.99,5.,-0.01,34.01,5.,       153P    141
50.01,4.99,5.,50.01,-0.001,2.901,-0.001,5.001;                       153P    142
128,1,1,1,1,0,0,1,0,0,-0.001,-0.001,6.501,6.501,-0.001,-0.001,       155P    143
5.001,5.001,1.,1.,1.,1.,34.,70.01,-0.01,34.,4.99,-0.01,34.,          155P    144
70.01,50.01,34.,4.99,50.01,-0.001,6.501,-0.001,5.001;                155P    145
128,1,1,1,1,0,0,1,0,0,-1.951,-1.951,1.951,1.951,-3.751,-3.751,       157P    146
3.751,3.751,1.,1.,1.,1.,-0.0099999999999989,-0.0099999999999989,     157P    147
50.,39.01,-0.0099999999999989,50.,-0.0099999999999989,75.01,50.,     157P    148
39.01,75.01,50.,-1.951,1.951,-3.751,3.751;                           157P    149
128,1,1,1,1,0,0,1,0,0,-1.951,-1.951,1.951,1.951,-3.751,-3.751,       159P    150
3.751,3.751,1.,1.,1.,1.,39.01,-0.0099999999999989,0.,                159P    151
-0.0099999999999989,-0.0099999999999989,0.,39.01,75.01,0.,           159P    152
-0.0099999999999989,75.01,0.,-1.951,1.951,-3.751,3.751;              159P    153
502,24,34.,70.,0.,28.5,70.,0.,34.,70.,50.,28.5,70.,50.,28.5,75.,     161P    154
0.,28.5,75.,50.,39.,75.,0.,39.,75.,50.,39.,0.,0.,39.,0.,50.,0.,      161P    155
0.,0.,0.,0.,50.,0.,75.,0.,0.,75.,50.,10.5,75.,0.,10.5,75.,50.,       161P    156
10.5,70.,0.,10.5,70.,50.,5.,70.,0.,5.,70.,50.,5.,5.,0.,5.,5.,        161P    157
50.,34.,5.,0.,34.,5.,50.;                                            161P    158
504,36,61,161,1,161,2,63,161,1,161,3,65,161,4,161,3,67,161,2,        163P    159
161,4,69,161,2,161,5,71,161,6,161,4,73,161,5,161,6,75,161,7,161,     163P    160
5,77,161,8,161,6,79,161,7,161,8,81,161,9,161,7,83,161,10,161,8,      163P    161
85,161,9,161,10,87,161,11,161,9,89,161,12,161,10,91,161,11,161,      163P    162
12,93,161,11,161,13,95,161,14,161,12,97,161,13,161,14,99,161,13,     163P    163
161,15,101,161,16,161,14,103,161,15,161,16,105,161,17,161,15,        163P    164
107,161,18,161,16,109,161,17,161,18,111,161,19,161,17,113,161,       163P    165
20,161,18,115,161,19,161,20,117,161,19,161,21,119,161,22,161,20,     163P    166
121,161,21,161,22,123,161,23,161,21,125,161,24,161,22,127,161,       163P    167
23,161,24,129,161,1,161,23,131,161,3,161,24;                         163P    168
406,1,5HBody1;                                                       165P    169
314,62.7450980392157,62.7450980392157,62.7450980392157,13HSteel      167P    170
- Satin;                                                             167P    171
S      1G      3D    168P    171                                        T      1
