                                                                        S      1
,,9H(Unsaved),25Hfinal side mount servo v1,7Hunknown,7Hunknown,32,38,7, G      1
99,15,,1.,2,2HMM,1,0.08,15H20240619.230429,0.01,10000.,7Hunknown,7HunknoG      2
wn,11,0,;                                                               G      3
     186       1                                                00000000D      1
     186            -139       1       0                               0D      2
     514       2                                                00010000D      3
     514                       1       1                               0D      4
     510       3                                                00010000D      5
     510            -139       1       1                               0D      6
     510       4                                                00010000D      7
     510            -139       1       1                               0D      8
     510       5                                                00010000D      9
     510            -139       1       1                               0D     10
     510       6                                                00010000D     11
     510            -139       1       1                               0D     12
     510       7                                                00010000D     13
     510            -139       1       1                               0D     14
     510       8                                                00010000D     15
     510            -139       1       1                               0D     16
     510       9                                                00010000D     17
     510            -139       1       1                               0D     18
     510      10                                                00010000D     19
     510            -139       1       1                               0D     20
     510      11                                                00010000D     21
     510            -139       1       1                               0D     22
     510      12                                                00010000D     23
     510            -139       1       1                               0D     24
     510      13                                                00010000D     25
     510            -139       1       1                               0D     26
     508      14                                                00010000D     27
     508                       1       1                               0D     28
     508      15                                                00010000D     29
     508                       1       1                               0D     30
     508      16                                                00010000D     31
     508                       1       1                               0D     32
     508      17                                                00010000D     33
     508                       1       1                               0D     34
     508      18                                                00010000D     35
     508                       1       1                               0D     36
     508      19                                                00010000D     37
     508                       1       1                               0D     38
     508      20                                                00010000D     39
     508                       1       1                               0D     40
     508      21                                                00010000D     41
     508                       1       1                               0D     42
     508      22                                                00010000D     43
     508                       1       1                               0D     44
     508      23                                                00010000D     45
     508                       1       1                               0D     46
     508      24                                                00010000D     47
     508                       1       1                               0D     48
     508      25                                                00010000D     49
     508                       1       1                               0D     50
     508      26                                                00010000D     51
     508                       1       1                               0D     52
     508      27                                                00010000D     53
     508                       1       1                               0D     54
     508      28                                                00010000D     55
     508                       1       1                               0D     56
     126      29                                                00010000D     57
     126       0               2       0                               0D     58
     126      31                                                00010000D     59
     126       0               2       0                               0D     60
     126      33                                                00010000D     61
     126       0               2       0                               0D     62
     126      35                                                00010000D     63
     126       0               2       0                               0D     64
     126      37                                                00010000D     65
     126       0               5       0                               0D     66
     126      42                                                00010000D     67
     126       0               5       0                               0D     68
     126      47                                                00010000D     69
     126       0               2       0                               0D     70
     126      49                                                00010000D     71
     126       0               2       0                               0D     72
     126      51                                                00010000D     73
     126       0               2       0                               0D     74
     126      53                                                00010000D     75
     126       0               2       0                               0D     76
     126      55                                                00010000D     77
     126       0               5       0                               0D     78
     126      60                                                00010000D     79
     126       0               5       0                               0D     80
     126      65                                                00010000D     81
     126       0               8       0                               0D     82
     126      73                                                00010000D     83
     126       0               2       0                               0D     84
     126      75                                                00010000D     85
     126       0               8       0                               0D     86
     126      83                                                00010000D     87
     126       0               2       0                               0D     88
     126      85                                                00010000D     89
     126       0               2       0                               0D     90
     126      87                                                00010000D     91
     126       0               2       0                               0D     92
     126      89                                                00010000D     93
     126       0               2       0                               0D     94
     126      91                                                00010000D     95
     126       0               2       0                               0D     96
     126      93                                                00010000D     97
     126       0               2       0                               0D     98
     126      95                                                00010000D     99
     126       0               2       0                               0D    100
     126      97                                                00010000D    101
     126       0               2       0                               0D    102
     126      99                                                00010000D    103
     126       0               2       0                               0D    104
     126     101                                                00010000D    105
     126       0               2       0                               0D    106
     126     103                                                00010000D    107
     126       0               2       0                               0D    108
     126     105                                                00010000D    109
     126       0               2       0                               0D    110
     128     107                                                00010000D    111
     128       0    -139       3       0                               0D    112
     128     110                                                00010000D    113
     128       0    -139       7       0                               0D    114
     128     117                                                00010000D    115
     128       0    -139       3       0                               0D    116
     128     120                                                00010000D    117
     128       0    -139       7       0                               0D    118
     128     127                                                00010000D    119
     128       0    -139      13       0                               0D    120
     128     140                                                00010000D    121
     128       0    -139       4       0                               0D    122
     128     144                                                00010000D    123
     128       0    -139       6       0                               0D    124
     128     150                                                00010000D    125
     128       0    -139       3       0                               0D    126
     128     153                                                00010000D    127
     128       0    -139       3       0                               0D    128
     128     156                                                00010000D    129
     128       0    -139       5       0                               0D    130
     128     161                                                00010000D    131
     128       0    -139       4       0                               0D    132
     502     165                                                00010000D    133
     502                       4       1                               0D    134
     504     169                                                00010001D    135
     504                       8       1                               0D    136
     406     177                                                00000000D    137
     406                       1      15                               0D    138
     314     178                                                00000200D    139
     314                       2       0                               0D    140
186,3,1,0,0,1,137;                                                     1P      1
514,11,5,1,7,1,9,1,11,1,13,1,15,1,17,1,19,1,21,1,23,1,25,1;            3P      2
510,111,1,1,27;                                                        5P      3
510,113,1,1,29;                                                        7P      4
510,115,1,1,31;                                                        9P      5
510,117,1,1,33;                                                       11P      6
510,119,1,1,35;                                                       13P      7
510,121,1,1,37;                                                       15P      8
510,123,1,1,39;                                                       17P      9
510,125,1,1,41;                                                       19P     10
510,127,1,1,43;                                                       21P     11
510,129,3,1,45,47,49;                                                 23P     12
510,131,3,1,51,53,55;                                                 25P     13
508,4,0,135,1,1,0,0,135,2,1,0,0,135,3,0,0,0,135,4,0,0;                27P     14
508,4,0,135,5,1,0,0,135,4,1,0,0,135,6,0,0,0,135,7,0,0;                29P     15
508,4,0,135,8,1,0,0,135,7,1,0,0,135,9,0,0,0,135,10,0,0;               31P     16
508,4,0,135,11,1,0,0,135,10,1,0,0,135,12,0,0,0,135,2,0,0;             33P     17
508,4,0,135,13,0,0,0,135,14,1,0,0,135,15,1,0,0,135,14,0,0;            35P     18
508,4,0,135,16,0,0,0,135,17,1,0,0,135,18,0,0,0,135,19,0,0;            37P     19
508,4,0,135,20,1,0,0,135,19,1,0,0,135,21,0,0,0,135,22,0,0;            39P     20
508,4,0,135,23,1,0,0,135,22,1,0,0,135,24,0,0,0,135,25,0,0;            41P     21
508,4,0,135,26,0,0,0,135,25,1,0,0,135,27,0,0,0,135,17,0,0;            43P     22
508,4,0,135,27,1,0,0,135,24,1,0,0,135,21,1,0,0,135,18,1,0;            45P     23
508,1,0,135,13,1,0;                                                   47P     24
508,4,0,135,12,1,0,0,135,9,1,0,0,135,6,1,0,0,135,3,1,0;               49P     25
508,4,0,135,26,1,0,0,135,16,1,0,0,135,20,0,0,0,135,23,0,0;            51P     26
508,1,0,135,15,0,0;                                                   53P     27
508,4,0,135,11,0,0,0,135,1,0,0,0,135,5,0,0,0,135,8,0,0;               55P     28
126,1,1,0,0,1,0,-2.3,-2.3,0.,0.,1.,1.,49.5,120.,0.,72.5,120.,0.,      57P     29
-2.3,0.,0.,0.,0.;                                                     57P     30
126,1,1,0,0,1,0,0.,0.,0.5,0.5,1.,1.,72.5,120.,0.,72.5,120.,5.,        59P     31
0.,0.5,0.,0.,0.;                                                      59P     32
126,1,1,0,0,1,0,-2.3,-2.3,0.,0.,1.,1.,49.5,120.,5.,72.5,120.,5.,      61P     33
-2.3,0.,0.,0.,0.;                                                     61P     34
126,1,1,0,0,1,0,0.,0.,0.5,0.5,1.,1.,49.5,120.,0.,49.5,120.,5.,        63P     35
0.,0.5,0.,0.,0.;                                                      63P     36
126,4,2,0,0,0,0,-3.14159265358979,-3.14159265358979,                  65P     37
-3.14159265358979,-1.5707963267949,-1.5707963267949,0.,0.,0.,1.,      65P     38
0.707106781186539,1.,0.707106781186539,1.,49.5,115.,0.,47.,115.,      65P     39
0.,47.,117.5,0.,47.,120.,0.,49.5,120.,0.,-3.14159265358979,0.,        65P     40
0.,0.,0.;                                                             65P     41
126,4,2,0,0,0,0,-3.14159265358979,-3.14159265358979,                  67P     42
-3.14159265358979,-1.5707963267949,-1.5707963267949,0.,0.,0.,1.,      67P     43
0.707106781186539,1.,0.707106781186539,1.,49.5,115.,5.,47.,115.,      67P     44
5.,47.,117.5,5.,47.,120.,5.,49.5,120.,5.,-3.14159265358979,0.,        67P     45
0.,0.,0.;                                                             67P     46
126,1,1,0,0,1,0,0.,0.,0.5,0.5,1.,1.,49.5,115.,0.,49.5,115.,5.,        69P     47
0.,0.5,0.,0.,0.;                                                      69P     48
126,1,1,0,0,1,0,0.,0.,2.3,2.3,1.,1.,72.5,115.,0.,49.5,115.,0.,        71P     49
0.,2.3,0.,0.,0.;                                                      71P     50
126,1,1,0,0,1,0,0.,0.,2.3,2.3,1.,1.,72.5,115.,5.,49.5,115.,5.,        73P     51
0.,2.3,0.,0.,0.;                                                      73P     52
126,1,1,0,0,1,0,0.,0.,0.5,0.5,1.,1.,72.5,115.,0.,72.5,115.,5.,        75P     53
0.,0.5,0.,0.,0.;                                                      75P     54
126,4,2,0,0,0,0,-3.14159265358979,-3.14159265358979,                  77P     55
-3.14159265358979,-1.5707963267949,-1.5707963267949,0.,0.,0.,1.,      77P     56
0.707106781186539,1.,0.707106781186539,1.,72.5,120.,0.,75.,120.,      77P     57
0.,75.,117.5,0.,75.,115.,0.,72.5,115.,0.,-3.14159265358979,0.,        77P     58
0.,0.,0.;                                                             77P     59
126,4,2,0,0,0,0,-3.14159265358979,-3.14159265358979,                  79P     60
-3.14159265358979,-1.5707963267949,-1.5707963267949,0.,0.,0.,1.,      79P     61
0.707106781186539,1.,0.707106781186539,1.,72.5,120.,5.,75.,120.,      79P     62
5.,75.,117.5,5.,75.,115.,5.,72.5,115.,5.,-3.14159265358979,0.,        79P     63
0.,0.,0.;                                                             79P     64
126,8,2,0,1,0,0,-3.14159265358979,-3.14159265358979,                  81P     65
-3.14159265358979,-1.5707963267949,-1.5707963267949,0.,0.,            81P     66
1.5707963267949,1.5707963267949,3.14159265358979,                     81P     67
3.14159265358979,3.14159265358979,1.,0.707106781186553,1.,            81P     68
0.707106781186553,1.,0.707106781186553,1.,0.707106781186553,1.,       81P     69
39.25,131.25,5.,39.25,134.,5.,42.,134.,5.,44.75,134.,5.,44.75,        81P     70
131.25,5.,44.75,128.5,5.,42.,128.5,5.,39.25,128.5,5.,39.25,           81P     71
131.25,5.,-3.14159265358979,3.14159265358979,0.,0.,0.;                81P     72
126,1,1,0,0,1,0,-1.81818181818182,-1.81818181818182,0.,0.,1.,1.,      83P     73
39.25,131.25,5.,39.25,131.25,0.,-1.81818181818182,0.,0.,0.,0.;        83P     74
126,8,2,0,1,0,0,-3.14159265358979,-3.14159265358979,                  85P     75
-3.14159265358979,-1.5707963267949,-1.5707963267949,0.,0.,            85P     76
1.5707963267949,1.5707963267949,3.14159265358979,                     85P     77
3.14159265358979,3.14159265358979,1.,0.707106781186553,1.,            85P     78
0.707106781186553,1.,0.707106781186553,1.,0.707106781186553,1.,       85P     79
39.25,131.25,0.,39.25,134.,0.,42.,134.,0.,44.75,134.,0.,44.75,        85P     80
131.25,0.,44.75,128.5,0.,42.,128.5,0.,39.25,128.5,0.,39.25,           85P     81
131.25,0.,-3.14159265358979,3.14159265358979,0.,0.,0.;                85P     82
126,1,1,0,0,1,0,0.,0.,12.,12.,1.,1.,0.,0.,0.,0.,120.,0.,0.,12.,       87P     83
0.,0.,0.;                                                             87P     84
126,1,1,0,0,1,0,0.,0.,0.5,0.5,1.,1.,0.,0.,0.,0.,0.,5.,0.,0.5,0.,      89P     85
0.,0.;                                                                89P     86
126,1,1,0,0,1,0,-12.,-12.,0.,0.,1.,1.,0.,120.,5.,0.,0.,5.,-12.,       91P     87
0.,0.,0.,0.;                                                          91P     88
126,1,1,0,0,1,0,0.,0.,0.5,0.5,1.,1.,0.,120.,0.,0.,120.,5.,0.,         93P     89
0.5,0.,0.,0.;                                                         93P     90
126,1,1,0,0,1,0,0.,0.,9.4339811320566,9.4339811320566,1.,1.,80.,      95P     91
170.,0.,0.,120.,0.,0.,9.4339811320566,0.,0.,0.;                       95P     92
126,1,1,0,0,1,0,0.,0.,9.4339811320566,9.4339811320566,1.,1.,80.,      97P     93
170.,5.,0.,120.,5.,0.,9.4339811320566,0.,0.,0.;                       97P     94
126,1,1,0,0,1,0,0.,0.,0.5,0.5,1.,1.,80.,170.,0.,80.,170.,5.,0.,       99P     95
0.5,0.,0.,0.;                                                         99P     96
126,1,1,0,0,1,0,0.,0.,17.,17.,1.,1.,80.,0.,0.,80.,170.,0.,0.,        101P     97
17.,0.,0.,0.;                                                        101P     98
126,1,1,0,0,1,0,0.,0.,17.,17.,1.,1.,80.,0.,5.,80.,170.,5.,0.,        103P     99
17.,0.,0.,0.;                                                        103P    100
126,1,1,0,0,1,0,0.,0.,0.5,0.5,1.,1.,80.,0.,0.,80.,0.,5.,0.,0.5,      105P    101
0.,0.,0.;                                                            105P    102
126,1,1,0,0,1,0,0.,0.,8.,8.,1.,1.,80.,0.,0.,0.,0.,0.,0.,8.,0.,       107P    103
0.,0.;                                                               107P    104
126,1,1,0,0,1,0,-8.,-8.,0.,0.,1.,1.,0.,0.,5.,80.,0.,5.,-8.,0.,       109P    105
0.,0.,0.;                                                            109P    106
128,1,1,1,1,0,0,1,0,0,-0.001,-0.001,2.301,2.301,-0.001,-0.001,       111P    107
0.501,0.501,1.,1.,1.,1.,49.49,120.,-0.01,72.51,120.,-0.01,49.49,     111P    108
120.,5.01,72.51,120.,5.01,-0.001,2.301,-0.001,0.501;                 111P    109
128,1,4,1,2,0,0,0,0,0,0.,0.,2.,2.,0.,0.,0.,1.5707963267949,          113P    110
1.5707963267949,3.14159265358979,3.14159265358979,                   113P    111
3.14159265358979,1.,1.,0.707106781186548,0.707106781186548,1.,       113P    112
1.,0.707106781186548,0.707106781186548,1.,1.,49.5,120.,0.,49.5,      113P    113
120.,5.,47.,120.,0.,47.,120.,5.,47.,117.5,0.,47.,117.5,5.,47.,       113P    114
115.,0.,47.,115.,5.,49.5,115.,0.,49.5,115.,5.,0.,2.,0.,              113P    115
3.14159265358979;                                                    113P    116
128,1,1,1,1,0,0,1,0,0,-0.001,-0.001,2.301,2.301,-0.001,-0.001,       115P    117
0.501,0.501,1.,1.,1.,1.,72.51,115.,-0.01,49.49,115.,-0.01,72.51,     115P    118
115.,5.01,49.49,115.,5.01,-0.001,2.301,-0.001,0.501;                 115P    119
128,1,4,1,2,0,0,0,0,0,0.,0.,2.,2.,0.,0.,0.,1.5707963267949,          117P    120
1.5707963267949,3.14159265358979,3.14159265358979,                   117P    121
3.14159265358979,1.,1.,0.707106781186548,0.707106781186548,1.,       117P    122
1.,0.707106781186548,0.707106781186548,1.,1.,72.5,115.,0.,72.5,      117P    123
115.,5.,75.,115.,0.,75.,115.,5.,75.,117.5,0.,75.,117.5,5.,75.,       117P    124
120.,0.,75.,120.,5.,72.5,120.,0.,72.5,120.,5.,0.,2.,0.,              117P    125
3.14159265358979;                                                    117P    126
128,1,8,1,2,0,1,0,0,1,0.,0.,1.81818181818182,1.81818181818182,       119P    127
-3.14159265358979,-3.14159265358979,-3.14159265358979,               119P    128
-1.5707963267949,-1.5707963267949,0.,0.,1.5707963267949,             119P    129
1.5707963267949,3.14159265358979,3.14159265358979,                   119P    130
3.14159265358979,1.,1.,0.707106781186548,0.707106781186548,1.,       119P    131
1.,0.707106781186548,0.707106781186548,1.,1.,0.707106781186548,      119P    132
0.707106781186548,1.,1.,0.707106781186548,0.707106781186548,1.,      119P    133
1.,39.25,131.25,0.,39.25,131.25,5.,39.25,128.5,0.,39.25,128.5,       119P    134
5.,42.,128.5,0.,42.,128.5,5.,44.75,128.5,0.,44.75,128.5,5.,          119P    135
44.75,131.25,0.,44.75,131.25,5.,44.75,134.,0.,44.75,134.,5.,42.,     119P    136
134.,0.,42.,134.,5.,39.25,134.,0.,39.25,134.,5.,39.25,131.25,0.,     119P    137
39.25,131.25,5.,0.,1.81818181818182,-3.14159265358979,               119P    138
3.14159265358979;                                                    119P    139
128,1,1,1,1,0,0,1,0,0,-0.001,-0.001,12.001,12.001,-0.001,-0.001,     121P    140
0.501,0.501,1.,1.,1.,1.,0.,120.01,-0.01,0.,-0.00999999999999446,     121P    141
-0.01,0.,120.01,5.01,0.,-0.00999999999999446,5.01,-0.001,12.001,     121P    142
-0.001,0.501;                                                        121P    143
128,1,1,1,1,0,0,1,0,0,-0.001,-0.001,9.4349811320566,                 123P    144
9.4349811320566,-0.001,-0.001,0.501,0.501,1.,1.,1.,1.,               123P    145
80.00847998304,170.0052999894,-0.01,-0.0084799830400506,             123P    146
119.9947000106,-0.01,80.00847998304,170.0052999894,5.01,             123P    147
-0.0084799830400506,119.9947000106,5.01,-0.001,9.4349811320566,      123P    148
-0.001,0.501;                                                        123P    149
128,1,1,1,1,0,0,1,0,0,-0.001,-0.001,17.001,17.001,-0.001,-0.001,     125P    150
0.501,0.501,1.,1.,1.,1.,80.,-0.01,-0.01,80.,170.01,-0.01,80.,        125P    151
-0.01,5.01,80.,170.01,5.01,-0.001,17.001,-0.001,0.501;               125P    152
128,1,1,1,1,0,0,1,0,0,-0.001,-0.001,8.001,8.001,-0.001,-0.001,       127P    153
0.501,0.501,1.,1.,1.,1.,-0.01,0.,-0.01,80.01,0.,-0.01,-0.01,0.,      127P    154
5.01,80.01,0.,5.01,-0.001,8.001,-0.001,0.501;                        127P    155
128,1,1,1,1,0,0,1,0,0,-4.001,-4.001,4.001,4.001,-8.501,-8.501,       129P    156
8.501,8.501,1.,1.,1.,1.,-0.0100000000000033,                         129P    157
-0.00999999999999446,5.,80.01,-0.00999999999999446,5.,               129P    158
-0.0100000000000033,170.01,5.,80.01,170.01,5.,-4.001,4.001,          129P    159
-8.501,8.501;                                                        129P    160
128,1,1,1,1,0,0,1,0,0,-4.001,-4.001,4.001,4.001,-8.501,-8.501,       131P    161
8.501,8.501,1.,1.,1.,1.,80.01,-0.00999999999999446,0.,               131P    162
-0.0100000000000033,-0.00999999999999446,0.,80.01,170.01,0.,         131P    163
-0.0100000000000033,170.01,0.,-4.001,4.001,-8.501,8.501;             131P    164
502,18,49.5,120.,0.,72.5,120.,0.,72.5,120.,5.,49.5,120.,5.,49.5,     133P    165
115.,0.,49.5,115.,5.,72.5,115.,0.,72.5,115.,5.,39.25,131.25,5.,      133P    166
39.25,131.25,0.,0.,0.,0.,0.,120.,0.,0.,0.,5.,0.,120.,5.,80.,         133P    167
170.,0.,80.,170.,5.,80.,0.,0.,80.,0.,5.;                             133P    168
504,27,57,133,1,133,2,59,133,2,133,3,61,133,4,133,3,63,133,1,        135P    169
133,4,65,133,5,133,1,67,133,6,133,4,69,133,5,133,6,71,133,7,133,     135P    170
5,73,133,8,133,6,75,133,7,133,8,77,133,2,133,7,79,133,3,133,8,       135P    171
81,133,9,133,9,83,133,9,133,10,85,133,10,133,10,87,133,11,133,       135P    172
12,89,133,11,133,13,91,133,14,133,13,93,133,12,133,14,95,133,15,     135P    173
133,12,97,133,16,133,14,99,133,15,133,16,101,133,17,133,15,103,      135P    174
133,18,133,16,105,133,17,133,18,107,133,17,133,11,109,133,13,        135P    175
133,18;                                                              135P    176
406,1,5HBody1;                                                       137P    177
314,62.7450980392157,62.7450980392157,62.7450980392157,13HSteel      139P    178
- Satin;                                                             139P    179
S      1G      3D    140P    179                                        T      1
